<svg xmlns="http://www.w3.org/2000/svg" viewBox="0 0 64 80" x="0px" y="0px"><g><path d="M59,2H5A3,3,0,0,0,2,5V49a3,3,0,0,0,3,3H27.7a8.235,8.235,0,0,1-.59,1.547A8.632,8.632,0,0,1,25.226,56H17a5.006,5.006,0,0,0-5,5,1,1,0,0,0,1,1H51a1,1,0,0,0,1-1,5.006,5.006,0,0,0-5-5H38.778A8.184,8.184,0,0,1,36.3,52H59a3,3,0,0,0,3-3V5A3,3,0,0,0,59,2ZM49.829,60H14.171A3.006,3.006,0,0,1,17,58H47A3.006,3.006,0,0,1,49.829,60ZM35.107,54.45A10.467,10.467,0,0,0,36.08,56H27.915a10.478,10.478,0,0,0,.978-1.55A10.218,10.218,0,0,0,29.762,52h4.476A10.218,10.218,0,0,0,35.107,54.45ZM60,49a1,1,0,0,1-1,1H5a1,1,0,0,1-1-1V5A1,1,0,0,1,5,4H59a1,1,0,0,1,1,1Z"/><path d="M57,6H7A1,1,0,0,0,6,7V43a1,1,0,0,0,1,1H57a1,1,0,0,0,1-1V7A1,1,0,0,0,57,6Zm-1,4H50a1,1,0,0,0-1,1v7H46V14a1,1,0,0,0-1-1H42V8H56ZM48,28H46V25h3v2a1,1,0,0,0,1,1h6v6H49V29A1,1,0,0,0,48,28Zm3-2V24a1,1,0,0,0-1-1H46V20h4a1,1,0,0,0,1-1V12h5V26ZM43,39h5v3H33V40h5a1,1,0,0,0,.708-.294L42,36.414V38A1,1,0,0,0,43,39ZM13,26H8V20h8v6a1,1,0,0,0,1,1h2v4H14V27A1,1,0,0,0,13,26Zm7-14H15V8H33v2H31a1,1,0,0,0-1,1v2H27a1,1,0,0,0-.759.35c-.75.875-1.558,1.788-2.343,2.65H21V13A1,1,0,0,0,20,12Zm12,1V12h2a1,1,0,0,0,1-1V8h5v5Zm-4.541,2H42.586l-5,5H22.864C23.928,18.964,25.4,17.39,27.459,15ZM21,38V22H37V38Zm-1,2h3v2H16V37h3v2A1,1,0,0,0,20,40Zm5,0h6v2H25Zm14-3.414V21.414l5-5V31.586ZM13,8v5a1,1,0,0,0,1,1h5v3a1,1,0,0,0,1,1h2.023a14.827,14.827,0,0,1-2.206,2.017.963.963,0,0,0-.117.043,1,1,0,0,0-.141.053,1.007,1.007,0,0,0-.181.122.707.707,0,0,0-.242.29A.759.759,0,0,0,19,21v4H18V19a1,1,0,0,0-1-1H8V8ZM8,28h4v4a1,1,0,0,0,1,1h6v2H15a1,1,0,0,0-1,1v6H8ZM50,42V38a1,1,0,0,0-1-1H44V34.414l1.707-1.707A1,1,0,0,0,46,32V30h1v5a1,1,0,0,0,1,1h8v6Z"/><path d="M33,28H31.816A3,3,0,0,0,29,26H25a3,3,0,0,0,0,6h1.184A3,3,0,0,0,29,34h4a3,3,0,0,0,0-6Zm-9,1a1,1,0,0,1,1-1h4a3,3,0,0,0-2.816,2H25A1,1,0,0,1,24,29Zm9,3H29a3,3,0,0,0,2.816-2H33a1,1,0,0,1,0,2Z"/><rect x="31" y="46" width="2" height="2"/><rect x="34" y="46" width="2" height="2"/><rect x="28" y="46" width="2" height="2"/></g></svg>